<svg xmlns="http://www.w3.org/2000/svg" viewBox="0 0 540.02 268"><g data-name="Layer 2"><rect y="46" width="422" height="222" rx="8" fill="#111119"/><g data-name="export default data return name: Glaxio dark: true" style="isolation:isolate" font-size="19.77" font-family="FiraCode-Regular, Fira Code"><text transform="translate(26.62 87.98)" fill="#f07" style="isolation:isolate">export </text><text transform="translate(111.8 87.98)" fill="#fb0" style="isolation:isolate">default {</text><text transform="translate(26.62 112.25)" fill="#fff" style="isolation:isolate"><tspan xml:space="preserve">    </tspan></text><text transform="translate(75.3 112.25)" fill="#044fff" style="isolation:isolate">data</text><text transform="translate(123.97 112.25)" fill="#f700ff" style="isolation:isolate">(){</text><text transform="translate(26.62 136.52)" fill="#fff" style="isolation:isolate"><tspan xml:space="preserve">       </tspan></text><text transform="translate(111.8 136.52)" fill="#f07" style="isolation:isolate">return {</text><text transform="translate(26.62 160.79)" fill="#fff" style="isolation:isolate"><tspan xml:space="preserve">           </tspan></text><text transform="translate(160.47 160.79)" fill="#00b17b" style="isolation:isolate">name: &quot;Glaxio&quot;,</text><text transform="translate(26.62 185.06)" fill="#fff" style="isolation:isolate"><tspan xml:space="preserve">           </tspan></text><text transform="translate(160.47 185.06)" fill="#00b17b" style="isolation:isolate">dark:</text><text transform="translate(221.32 185.06)" fill="#fff" style="isolation:isolate"> </text><text transform="translate(233.48 185.06)" fill="#ff6f00" style="isolation:isolate">true</text><text transform="translate(282.16 185.06)" fill="#00b17b" style="isolation:isolate">,</text><text transform="translate(26.62 209.33)" fill="#fff" style="isolation:isolate"><tspan xml:space="preserve">         </tspan></text><text transform="translate(136.14 209.33)" fill="#f07" style="isolation:isolate">}</text><text transform="translate(26.62 233.59)" fill="#fff" style="isolation:isolate"><tspan xml:space="preserve">      </tspan></text><text transform="translate(99.63 233.59)" fill="#fb0" style="isolation:isolate">}</text></g><g data-name="css"><path d="m59.7 179.76-4.44-48.7H103l-4.34 48.7-19.48 5.5" fill="#264de4"/><path d="M79.18 135v46L95 176.69 98.66 135" fill="#2965f1"/><path d="M64.15 141h15v5.93H64.68m.53 6.14h14v6H65.74m.32 3H72l.43 4.76 6.77 1.8v6.25l-12.4-3.38" fill="#ebebeb"/><path d="M79.18 153.08v6h7.31l-.74 7.73-6.57 1.8v6.25l12.18-3.39L94.11 141H79.18v5.93h8.47l-.58 6.14Z" fill="#fff"/></g><g data-name="html"><path fill="#e44f26" d="m137.22 180.14-4.41-49.45h48.45l-4.42 49.44-19.84 5.5-19.78-5.49z"/><path fill="#f1662a" d="m157.03 181.43 16.03-4.44 3.78-42.26h-19.81v46.7z"/><path fill="#ebebeb" d="M157.03 153.07h-8.02l-.56-6.21h8.58v-6.06H141.82l.15 1.63 1.49 16.71h13.57v-6.07zM157.03 168.82l-.03.01-6.75-1.82-.43-4.84h-6.09l.85 9.52 12.42 3.45h.03v-6.32z"/><path fill="#fff" d="M157.01 153.07v6.07h7.47l-.7 7.87-6.77 1.82v6.31l12.44-3.45.09-1.02 1.42-15.97.15-1.63H157.01zM157.01 140.8v6.06h14.65l.12-1.36.28-3.07.15-1.63h-15.2z"/></g><path d="M283.68 132.87h22.48l6.68 11.7 6.68-11.7H342l-29.16 50.58" fill="#42b883"/><path d="M295.37 132.87h10.79l6.68 11.7 6.68-11.7h10.79l-17.47 30.38" fill="#35495e"/><path fill="#f1dc50" d="M208.94 132.16h52v52h-52z"/><path d="M234.94 156v17.34a4.12 4.12 0 0 1-4.34 4.33c-5.17 0-5.41-4.33-5.41-4.33M254 161.45q-1.95-3.28-5.17-3.29c-3.35 0-5.21 2.17-5.21 4.33s1.09 4.34 5.44 5.42c2.77.69 5.4 2.17 5.4 5.42s-2.85 4.33-5.42 4.33q-4.92 0-6.5-4.33" fill="none" stroke="#333" stroke-width="4.33"/><rect x="119.02" width="421" height="203" rx="8" fill="#191928"/><rect x="309.12" y="58.98" width="40.81" height="40.81" rx="9.32" fill="#5f33ff"/><path d="M321.65 85.14a.44.44 0 0 1-.44-.44.46.46 0 0 1 .13-.31l.9-.9a.44.44 0 0 1 .62.62l-.9.9a.42.42 0 0 1-.31.13Zm-.83 3.38a.44.44 0 0 1-.44-.44.42.42 0 0 1 .13-.31l3-3a.44.44 0 0 1 .64.6l-3 3a.45.45 0 0 1-.31.12Zm2.78-.23a.43.43 0 0 1-.44-.44.48.48 0 0 1 .13-.31l1.5-1.5a.44.44 0 1 1 .62.62l-1.5 1.51a.45.45 0 0 1-.31.12Zm5-13.36Zm0 0ZM338.35 70.86a.43.43 0 0 0-.3-.31 9 9 0 0 0-8.71 2.33L328 74.47a7.89 7.89 0 0 0-6.92 3.94.44.44 0 0 0 .16.6h.11l2.44.62-.47 1.3a1.76 1.76 0 0 0 .4 1.85l2.09 2.09.28.28a1.75 1.75 0 0 0 1.85.41l1.3-.47.62 2.44a.42.42 0 0 0 .26.29.33.33 0 0 0 .17 0 .46.46 0 0 0 .22-.06 8.24 8.24 0 0 0 1.62-1.25 7.92 7.92 0 0 0 2.31-5.67l1.56-1.25a9 9 0 0 0 2.32-8.69Zm-9.74 4Zm0 0v.06-.06Zm-6.48 3.42a7 7 0 0 1 5.06-3l-3 3.49ZM331.5 86a8 8 0 0 1-.95.8l-.55-2.08 3.49-3a7 7 0 0 1-2 4.26Zm5.82-10.09a8 8 0 0 1-1.91 3l-1.71 1.49-4.39 3.77-1.68.62a.87.87 0 0 1-.92-.2l-.3-.3-2.09-2.09a.87.87 0 0 1-.2-.92l.62-1.68 3.76-4.38 1.5-1.73a8.17 8.17 0 0 1 7.61-2.16 8.23 8.23 0 0 1-.24 4.56ZM328.6 74.93Zm0 0Z" fill="#fff"/><text transform="translate(281.06 130.01)" font-size="14.52" fill="#a8a8a8" font-family="MicrosoftYaHeiUI-Bold, Microsoft YaHei UI" font-weight="700">Quick sta<tspan x="67.63" y="0" letter-spacing=".03em">r</tspan><tspan x="74.23" y="0">tup</tspan></text><path d="M270.68 124.11h-5.24l2.54-9a.2.2 0 0 0-.35-.16l-8.89 11.66a.41.41 0 0 0 .3.65h5.24l-2.54 9a.2.2 0 0 0 .35.16l8.91-11.66a.41.41 0 0 0-.3-.65Z" fill="#f0ff2b"/></g></svg>