<svg width="16" height="16" viewBox="0 0 344 344" style="enable-background:new 0 0 344 344" xml:space="preserve"><path fill="#5F33FF" d="M78.6 0h186.9C308.8 0 344 35.2 344 78.6v186.9c0 43.4-35.2 78.6-78.6 78.6H78.6C35.2 344 0 308.8 0 265.4V78.6C0 35.2 35.2 0 78.6 0z"/><path fill="#FFF" d="M105.6 220.6c-2 0-3.7-1.7-3.7-3.7 0-1 .4-1.9 1.1-2.6l7.6-7.6c1.4-1.4 3.8-1.4 5.2 0 1.4 1.4 1.4 3.8 0 5.2l-7.6 7.6c-.7.7-1.6 1.1-2.6 1.1zm-7 28.5c-2 0-3.7-1.6-3.7-3.7 0-1 .4-1.9 1.1-2.6l25.3-25.3c1.4-1.5 3.7-1.6 5.2-.2 1.5 1.4 1.6 3.7.2 5.2l-.2.2-25.3 25.3c-.6.7-1.6 1.1-2.6 1.1zm23.5-1.9c-2 0-3.7-1.7-3.7-3.7 0-1 .4-1.9 1.1-2.6l12.7-12.7c1.4-1.4 3.8-1.4 5.2 0s1.4 3.8 0 5.2l-12.7 12.7c-.7.7-1.7 1-2.6 1.1zm42.2-112.7c0 .2 0 .3-.1.5.1-.2.1-.3.1-.5zm0-.1v-.2.2z"/><path fill="#FFF" d="M246.5 100.2c-.3-1.3-1.3-2.3-2.6-2.6-26.2-7-54.2.5-73.4 19.7l-.2.2-.1.1-11.3 13.1c-24-.3-46.3 12.4-58.3 33.2-1 1.8-.4 4 1.3 5.1.3.2.6.3.9.4l20.6 5.2-4 10.9c-2 5.4-.7 11.5 3.4 15.6l17.7 17.7.1.1 2.4 2.4c4.1 4.1 10.2 5.4 15.6 3.4l10.9-4 5.2 20.6c.3 1.1 1.1 2.1 2.2 2.5.5.2.9.3 1.4.3.7 0 1.3-.2 1.9-.5 5-2.9 9.6-6.5 13.7-10.5 12.6-12.7 19.7-29.9 19.5-47.8l13.2-11.3c.1-.1.2-.2.3-.2 19.1-19.2 26.6-47.1 19.6-73.3v-.3zm-82.2 34.2c0-.1 0-.1 0 0zm0 .1c0 .2 0 .3-.1.5.1-.2.1-.3.1-.5zm-54.7 28.8c9.9-14.2 25.5-23.3 42.7-25L127 167.7l-17.4-4.4zm79 64.4c-2.5 2.5-5.1 4.7-8 6.7l-4.4-17.4 29.4-25.3c-1.3 13.6-7.3 26.3-17 36zm49.2-85.1c-3.4 9.7-8.9 18.4-16.1 25.7l-14.4 12.4-37 31.8-14.1 5.2c-2.7 1-5.7.3-7.8-1.7l-2.5-2.5-.1-.1-17.6-17.6c-2-2-2.7-5.1-1.7-7.8l5.2-14.2 31.7-36.9.1-.1v-.1l12.4-14.4c16.8-16.7 41-23.6 64.1-18.2 2.8 12.8 2.1 26.1-2.2 38.5z"/><path fill="#FFF" d="M164.3 134.5c0 .2 0 .3-.1.5.1-.2.1-.3.1-.5zm0-.1v-.2.2z"/></svg>